<mxfile host="app.diagrams.net" agent="Mozilla/5.0 (X11; Linux x86_64) AppleWebKit/537.36 (KHTML, like Gecko) Chrome/126.0.0.0 Safari/537.36" version="24.7.16">
  <diagram name="Page-1" id="90a13364-a465-7bf4-72fc-28e22215d7a0">
    <mxGraphModel dx="830" dy="472" grid="1" gridSize="10" guides="1" tooltips="1" connect="1" arrows="1" fold="1" page="1" pageScale="1.5" pageWidth="1169" pageHeight="826" background="none" math="0" shadow="0">
      <root>
        <mxCell id="0" style=";html=1;" />
        <mxCell id="1" style=";html=1;" parent="0" />
        <mxCell id="W7KLRnC-2VCepuPbdDTs-93" value="" style="rounded=1;whiteSpace=wrap;html=1;fillStyle=solid;dashed=1;fillColor=none;strokeColor=#6c8ebf;gradientColor=none;strokeWidth=2;" vertex="1" parent="1">
          <mxGeometry x="590" y="220" width="390" height="240" as="geometry" />
        </mxCell>
        <mxCell id="W7KLRnC-2VCepuPbdDTs-89" value="" style="endArrow=classic;html=1;rounded=0;edgeStyle=orthogonalEdgeStyle;exitX=0;exitY=0.75;exitDx=0;exitDy=0;" edge="1" parent="1" source="W7KLRnC-2VCepuPbdDTs-9">
          <mxGeometry width="50" height="50" relative="1" as="geometry">
            <mxPoint x="790" y="520" as="sourcePoint" />
            <mxPoint x="705" y="250" as="targetPoint" />
            <Array as="points">
              <mxPoint x="840" y="550" />
              <mxPoint x="820" y="550" />
              <mxPoint x="820" y="580" />
              <mxPoint x="580" y="580" />
              <mxPoint x="580" y="250" />
            </Array>
          </mxGeometry>
        </mxCell>
        <mxCell id="W7KLRnC-2VCepuPbdDTs-9" value="DDMR" style="rounded=1;whiteSpace=wrap;html=1;" vertex="1" parent="1">
          <mxGeometry x="840" y="512.5" width="60" height="55" as="geometry" />
        </mxCell>
        <mxCell id="W7KLRnC-2VCepuPbdDTs-13" value="Obstacle&amp;nbsp;&lt;div&gt;Detection&lt;/div&gt;" style="rounded=1;whiteSpace=wrap;html=1;" vertex="1" parent="1">
          <mxGeometry x="705" y="235" width="85" height="45" as="geometry" />
        </mxCell>
        <mxCell id="W7KLRnC-2VCepuPbdDTs-16" value="MoveBase Planner" style="rounded=1;whiteSpace=wrap;html=1;" vertex="1" parent="1">
          <mxGeometry x="600" y="320" width="70" height="40" as="geometry" />
        </mxCell>
        <mxCell id="W7KLRnC-2VCepuPbdDTs-17" value="Trajectory Planner" style="rounded=1;whiteSpace=wrap;html=1;" vertex="1" parent="1">
          <mxGeometry x="720" y="290" width="80" height="145" as="geometry" />
        </mxCell>
        <mxCell id="W7KLRnC-2VCepuPbdDTs-19" value="AMCL" style="rounded=1;whiteSpace=wrap;html=1;" vertex="1" parent="1">
          <mxGeometry x="645" y="500" width="60" height="67.5" as="geometry" />
        </mxCell>
        <mxCell id="W7KLRnC-2VCepuPbdDTs-44" value="" style="endArrow=classic;html=1;rounded=0;entryX=0;entryY=0.897;entryDx=0;entryDy=0;edgeStyle=orthogonalEdgeStyle;exitX=0;exitY=0.5;exitDx=0;exitDy=0;entryPerimeter=0;" edge="1" parent="1" source="W7KLRnC-2VCepuPbdDTs-19" target="W7KLRnC-2VCepuPbdDTs-17">
          <mxGeometry width="50" height="50" relative="1" as="geometry">
            <mxPoint x="620" y="530" as="sourcePoint" />
            <mxPoint x="710" y="400" as="targetPoint" />
            <Array as="points">
              <mxPoint x="610" y="534" />
              <mxPoint x="610" y="420" />
            </Array>
          </mxGeometry>
        </mxCell>
        <mxCell id="W7KLRnC-2VCepuPbdDTs-46" value="/tf" style="edgeLabel;html=1;align=center;verticalAlign=middle;resizable=0;points=[];" vertex="1" connectable="0" parent="W7KLRnC-2VCepuPbdDTs-44">
          <mxGeometry relative="1" as="geometry">
            <mxPoint x="16" y="60" as="offset" />
          </mxGeometry>
        </mxCell>
        <mxCell id="W7KLRnC-2VCepuPbdDTs-47" value="nMPC" style="rounded=1;whiteSpace=wrap;html=1;" vertex="1" parent="1">
          <mxGeometry x="890" y="280" width="80" height="130" as="geometry" />
        </mxCell>
        <mxCell id="W7KLRnC-2VCepuPbdDTs-58" value="" style="endArrow=classic;html=1;rounded=0;exitX=0.394;exitY=1;exitDx=0;exitDy=0;entryX=0.004;entryY=0.784;entryDx=0;entryDy=0;entryPerimeter=0;exitPerimeter=0;edgeStyle=orthogonalEdgeStyle;" edge="1" parent="1" source="W7KLRnC-2VCepuPbdDTs-16" target="W7KLRnC-2VCepuPbdDTs-17">
          <mxGeometry width="50" height="50" relative="1" as="geometry">
            <mxPoint x="620" y="387.5" as="sourcePoint" />
            <mxPoint x="670" y="337.5" as="targetPoint" />
            <Array as="points">
              <mxPoint x="620" y="360" />
              <mxPoint x="620" y="404" />
            </Array>
          </mxGeometry>
        </mxCell>
        <mxCell id="W7KLRnC-2VCepuPbdDTs-59" value="/move_base/&lt;div&gt;NavfnROS/plan&lt;/div&gt;" style="edgeLabel;html=1;align=center;verticalAlign=middle;resizable=0;points=[];" vertex="1" connectable="0" parent="W7KLRnC-2VCepuPbdDTs-58">
          <mxGeometry x="0.2265" y="-1" relative="1" as="geometry">
            <mxPoint x="8" y="-16" as="offset" />
          </mxGeometry>
        </mxCell>
        <mxCell id="W7KLRnC-2VCepuPbdDTs-60" value="" style="endArrow=classic;html=1;rounded=0;exitX=1.035;exitY=0.154;exitDx=0;exitDy=0;exitPerimeter=0;entryX=0;entryY=0.25;entryDx=0;entryDy=0;" edge="1" parent="1" source="W7KLRnC-2VCepuPbdDTs-17" target="W7KLRnC-2VCepuPbdDTs-47">
          <mxGeometry width="50" height="50" relative="1" as="geometry">
            <mxPoint x="820" y="325" as="sourcePoint" />
            <mxPoint x="889" y="312" as="targetPoint" />
          </mxGeometry>
        </mxCell>
        <mxCell id="W7KLRnC-2VCepuPbdDTs-61" value="/current_state" style="edgeLabel;html=1;align=center;verticalAlign=middle;resizable=0;points=[];" vertex="1" connectable="0" parent="W7KLRnC-2VCepuPbdDTs-60">
          <mxGeometry x="0.0171" y="2" relative="1" as="geometry">
            <mxPoint x="-1" y="-7" as="offset" />
          </mxGeometry>
        </mxCell>
        <mxCell id="W7KLRnC-2VCepuPbdDTs-62" value="" style="endArrow=classic;html=1;rounded=0;exitX=1.01;exitY=0.331;exitDx=0;exitDy=0;exitPerimeter=0;entryX=0.008;entryY=0.451;entryDx=0;entryDy=0;entryPerimeter=0;" edge="1" parent="1" source="W7KLRnC-2VCepuPbdDTs-17" target="W7KLRnC-2VCepuPbdDTs-47">
          <mxGeometry width="50" height="50" relative="1" as="geometry">
            <mxPoint x="840" y="430" as="sourcePoint" />
            <mxPoint x="890" y="380" as="targetPoint" />
          </mxGeometry>
        </mxCell>
        <mxCell id="W7KLRnC-2VCepuPbdDTs-63" value="/ref_traj" style="edgeLabel;html=1;align=center;verticalAlign=middle;resizable=0;points=[];" vertex="1" connectable="0" parent="W7KLRnC-2VCepuPbdDTs-62">
          <mxGeometry x="-0.0041" relative="1" as="geometry">
            <mxPoint y="-12" as="offset" />
          </mxGeometry>
        </mxCell>
        <mxCell id="W7KLRnC-2VCepuPbdDTs-67" value="" style="endArrow=classic;html=1;rounded=0;exitX=1;exitY=0.5;exitDx=0;exitDy=0;entryX=0.015;entryY=0.633;entryDx=0;entryDy=0;entryPerimeter=0;" edge="1" parent="1" source="W7KLRnC-2VCepuPbdDTs-17" target="W7KLRnC-2VCepuPbdDTs-47">
          <mxGeometry width="50" height="50" relative="1" as="geometry">
            <mxPoint x="820" y="435" as="sourcePoint" />
            <mxPoint x="860" y="370" as="targetPoint" />
          </mxGeometry>
        </mxCell>
        <mxCell id="W7KLRnC-2VCepuPbdDTs-69" value="/target_state" style="edgeLabel;html=1;align=center;verticalAlign=middle;resizable=0;points=[];" vertex="1" connectable="0" parent="W7KLRnC-2VCepuPbdDTs-67">
          <mxGeometry x="0.0199" y="-1" relative="1" as="geometry">
            <mxPoint x="-1" y="-13" as="offset" />
          </mxGeometry>
        </mxCell>
        <mxCell id="W7KLRnC-2VCepuPbdDTs-76" value="" style="endArrow=classic;html=1;rounded=0;entryX=0.987;entryY=0.688;entryDx=0;entryDy=0;entryPerimeter=0;exitX=-0.006;exitY=0.844;exitDx=0;exitDy=0;exitPerimeter=0;" edge="1" parent="1" source="W7KLRnC-2VCepuPbdDTs-47" target="W7KLRnC-2VCepuPbdDTs-17">
          <mxGeometry width="50" height="50" relative="1" as="geometry">
            <mxPoint x="720" y="460" as="sourcePoint" />
            <mxPoint x="770" y="410" as="targetPoint" />
          </mxGeometry>
        </mxCell>
        <mxCell id="W7KLRnC-2VCepuPbdDTs-77" value="/cmd_vel" style="edgeLabel;html=1;align=center;verticalAlign=middle;resizable=0;points=[];" vertex="1" connectable="0" parent="W7KLRnC-2VCepuPbdDTs-76">
          <mxGeometry x="0.0048" y="1" relative="1" as="geometry">
            <mxPoint x="1" y="-11" as="offset" />
          </mxGeometry>
        </mxCell>
        <mxCell id="W7KLRnC-2VCepuPbdDTs-78" value="" style="endArrow=classic;html=1;rounded=0;exitX=1.013;exitY=0.874;exitDx=0;exitDy=0;exitPerimeter=0;entryX=1;entryY=0.5;entryDx=0;entryDy=0;edgeStyle=orthogonalEdgeStyle;" edge="1" parent="1" source="W7KLRnC-2VCepuPbdDTs-17" target="W7KLRnC-2VCepuPbdDTs-9">
          <mxGeometry width="50" height="50" relative="1" as="geometry">
            <mxPoint x="710" y="420" as="sourcePoint" />
            <mxPoint x="760" y="370" as="targetPoint" />
            <Array as="points">
              <mxPoint x="960" y="417" />
              <mxPoint x="960" y="540" />
            </Array>
          </mxGeometry>
        </mxCell>
        <mxCell id="W7KLRnC-2VCepuPbdDTs-79" value="/cmd_vel" style="edgeLabel;html=1;align=center;verticalAlign=middle;resizable=0;points=[];" vertex="1" connectable="0" parent="W7KLRnC-2VCepuPbdDTs-78">
          <mxGeometry x="0.8355" relative="1" as="geometry">
            <mxPoint x="4" y="-12" as="offset" />
          </mxGeometry>
        </mxCell>
        <mxCell id="W7KLRnC-2VCepuPbdDTs-80" value="" style="endArrow=classic;html=1;rounded=0;entryX=-0.017;entryY=0.138;entryDx=0;entryDy=0;entryPerimeter=0;exitX=0;exitY=0.5;exitDx=0;exitDy=0;edgeStyle=orthogonalEdgeStyle;" edge="1" parent="1" source="W7KLRnC-2VCepuPbdDTs-13" target="W7KLRnC-2VCepuPbdDTs-17">
          <mxGeometry width="50" height="50" relative="1" as="geometry">
            <mxPoint x="590" y="300" as="sourcePoint" />
            <mxPoint x="640" y="250" as="targetPoint" />
            <Array as="points">
              <mxPoint x="705" y="270" />
              <mxPoint x="600" y="270" />
              <mxPoint x="600" y="310" />
            </Array>
          </mxGeometry>
        </mxCell>
        <mxCell id="W7KLRnC-2VCepuPbdDTs-81" value="/detected_obstacles" style="edgeLabel;html=1;align=center;verticalAlign=middle;resizable=0;points=[];" vertex="1" connectable="0" parent="W7KLRnC-2VCepuPbdDTs-80">
          <mxGeometry x="0.6166" y="-2" relative="1" as="geometry">
            <mxPoint x="-6" y="-12" as="offset" />
          </mxGeometry>
        </mxCell>
        <mxCell id="W7KLRnC-2VCepuPbdDTs-82" value="" style="endArrow=classic;html=1;rounded=0;entryX=1;entryY=0.5;entryDx=0;entryDy=0;exitX=0.002;exitY=0.4;exitDx=0;exitDy=0;exitPerimeter=0;" edge="1" parent="1" source="W7KLRnC-2VCepuPbdDTs-9" target="W7KLRnC-2VCepuPbdDTs-19">
          <mxGeometry width="50" height="50" relative="1" as="geometry">
            <mxPoint x="770" y="533.7" as="sourcePoint" />
            <mxPoint x="703.6800000000001" y="533.71" as="targetPoint" />
          </mxGeometry>
        </mxCell>
        <mxCell id="W7KLRnC-2VCepuPbdDTs-84" value="/cmd_vel" style="edgeLabel;html=1;align=center;verticalAlign=middle;resizable=0;points=[];" vertex="1" connectable="0" parent="W7KLRnC-2VCepuPbdDTs-82">
          <mxGeometry x="0.0124" relative="1" as="geometry">
            <mxPoint y="-8" as="offset" />
          </mxGeometry>
        </mxCell>
        <mxCell id="W7KLRnC-2VCepuPbdDTs-85" value="" style="endArrow=classic;html=1;rounded=0;entryX=0.995;entryY=0.741;entryDx=0;entryDy=0;entryPerimeter=0;exitX=0.002;exitY=0.688;exitDx=0;exitDy=0;exitPerimeter=0;" edge="1" parent="1" source="W7KLRnC-2VCepuPbdDTs-9" target="W7KLRnC-2VCepuPbdDTs-19">
          <mxGeometry width="50" height="50" relative="1" as="geometry">
            <mxPoint x="770" y="550" as="sourcePoint" />
            <mxPoint x="710" y="550" as="targetPoint" />
          </mxGeometry>
        </mxCell>
        <mxCell id="W7KLRnC-2VCepuPbdDTs-86" value="/scan" style="edgeLabel;html=1;align=center;verticalAlign=middle;resizable=0;points=[];" vertex="1" connectable="0" parent="W7KLRnC-2VCepuPbdDTs-85">
          <mxGeometry x="0.0124" relative="1" as="geometry">
            <mxPoint y="-8" as="offset" />
          </mxGeometry>
        </mxCell>
        <mxCell id="W7KLRnC-2VCepuPbdDTs-94" value="&lt;font color=&quot;#6c8ebf&quot;&gt;nMPC Local Planner&lt;/font&gt;" style="text;html=1;align=center;verticalAlign=middle;resizable=0;points=[];autosize=1;strokeColor=none;fillColor=none;" vertex="1" parent="1">
          <mxGeometry x="720" y="190" width="130" height="30" as="geometry" />
        </mxCell>
        <mxCell id="W7KLRnC-2VCepuPbdDTs-95" value="" style="endArrow=classic;html=1;rounded=0;entryX=0.999;entryY=0.203;entryDx=0;entryDy=0;entryPerimeter=0;exitX=0;exitY=0.5;exitDx=0;exitDy=0;edgeStyle=orthogonalEdgeStyle;" edge="1" parent="1" source="W7KLRnC-2VCepuPbdDTs-97" target="W7KLRnC-2VCepuPbdDTs-19">
          <mxGeometry width="50" height="50" relative="1" as="geometry">
            <mxPoint x="780" y="510" as="sourcePoint" />
            <mxPoint x="790" y="590" as="targetPoint" />
            <Array as="points">
              <mxPoint x="760" y="485" />
              <mxPoint x="760" y="514" />
            </Array>
          </mxGeometry>
        </mxCell>
        <mxCell id="W7KLRnC-2VCepuPbdDTs-96" value="/map" style="edgeLabel;html=1;align=center;verticalAlign=middle;resizable=0;points=[];" vertex="1" connectable="0" parent="W7KLRnC-2VCepuPbdDTs-95">
          <mxGeometry x="0.0124" relative="1" as="geometry">
            <mxPoint x="-16" y="-14" as="offset" />
          </mxGeometry>
        </mxCell>
        <mxCell id="W7KLRnC-2VCepuPbdDTs-97" value="map_server" style="rounded=1;whiteSpace=wrap;html=1;" vertex="1" parent="1">
          <mxGeometry x="780" y="470" width="90" height="30" as="geometry" />
        </mxCell>
      </root>
    </mxGraphModel>
  </diagram>
</mxfile>
